PathFileType	4	(X/Y/Z)	C:/Users/opensim2020/Desktop/walking_exp_matlab/subject03_walking09_straight_02.trc																																																																																																																																											
DataRate	CameraRate	NumFrames	NumMarkers	Units	OrigDataRate	OrigDataStartFrame	OrigNumFrames																																																																																																																																							
100	100	4	47	mm	100	2154	364																																																																																																																																							
Frame#	Time	LFHD			RFHD			LBHD			RBHD			C7			T10			CLAV			STRN			RBAK			LSHO			LUPA			LELB			LFRM			LWRA			LWRB			LFIN			RSHO			RUPA			RELB			RFRM			RWRA			RWRB			RFIN			LASI			RASI			LPSI			RPSI			LTHI			LKNE			LTIB			LANK			LHEE			LTOE			RTHI			RKNE			RTIB			RANK			RHEE			RTOE			*39			*40			*41			*42			*43			*44			*45			*46		
		X1	Y1	Z1	X2	Y2	Z2	X3	Y3	Z3	X4	Y4	Z4	X5	Y5	Z5	X6	Y6	Z6	X7	Y7	Z7	X8	Y8	Z8	X9	Y9	Z9	X10	Y10	Z10	X11	Y11	Z11	X12	Y12	Z12	X13	Y13	Z13	X14	Y14	Z14	X15	Y15	Z15	X16	Y16	Z16	X17	Y17	Z17	X18	Y18	Z18	X19	Y19	Z19	X20	Y20	Z20	X21	Y21	Z21	X22	Y22	Z22	X23	Y23	Z23	X24	Y24	Z24	X25	Y25	Z25	X26	Y26	Z26	X27	Y27	Z27	X28	Y28	Z28	X29	Y29	Z29	X30	Y30	Z30	X31	Y31	Z31	X32	Y32	Z32	X33	Y33	Z33	X34	Y34	Z34	X35	Y35	Z35	X36	Y36	Z36	X37	Y37	Z37	X38	Y38	Z38	X39	Y39	Z39	X40	Y40	Z40	X41	Y41	Z41	X42	Y42	Z42	X43	Y43	Z43	X44	Y44	Z44	X45	Y45	Z45	X46	Y46	Z46	X47	Y47	Z47
																																																																																																																																														
319	3.18	827.73499	1597.64478	-1503.47656	803.40643	1599.57092	-1372.27258	695.93689	1576.18018	-1524.96582	676.00177	1576.44873	-1395.60205	637.57617	1406.98682	-1461.98804	602.47284	1091.38232	-1455.88098	757.05865	1327.95251	-1463.65527	800.65112	1163.39941	-1464.58398	585.7995	1232.51929	-1358.06238	703.62317	1360.87341	-1619.40906	670.94153	1161.2561	-1680.83228	664.43604	1037.32703	-1688.51941	682.89642	908.30872	-1685.44446	699.26038	791.71649	-1652.10034	669.75006	795.04205	-1699.27393	681.21143	711.66449	-1686.73572	719.94946	1353.65881	-1303.52393	755.81677	1134.57935	-1230.65796	794.24347	1028.27515	-1221.68665	844.10327	901.1507	-1229.10413	893.00916	819.18774	-1274.62573	870.30164	803.92908	-1227.94104	909.76971	743.50067	-1244.54932	772.18018	928.17725	-1567.67554	760.40576	923.84631	-1330.35559	607.36566	950.50665	-1528.31873	602.72076	960.60107	-1377.8584	776.9693	632.57196	-1618.87549	833.79932	465.78317	-1575.14355	839.92419	275.8183	-1583.06641	891.36694	70.7348	-1556.3678	859.82922	29.2915	-1518.24329	1043.67078	54.54894	-1525.32727	655.10846	637.271	-1295.7981	627.61652	459.22278	-1330.63611	524.84631	294.49734	-1327.95581	425.06613	101.2967	-1374.51843	373.26224	80.66577	-1423.79041	553.35876	36.7801	-1389.6825	749.75958	1673.0791	-1465.71277	NaN	NaN	NaN	NaN	NaN	NaN	NaN	NaN	NaN	NaN	NaN	NaN	NaN	NaN	NaN	NaN	NaN	NaN	NaN	NaN	NaN
320	3.19	836.46753	1598.29089	-1503.95569	811.36041	1600.05872	-1372.91516	704.85236	1576.74231	-1526.26611	684.08771	1576.88818	-1397.10815	646.40936	1407.20459	-1463.78943	611.98218	1091.25854	-1457.1991	765.60492	1328.46326	-1464.77246	809.63928	1163.91797	-1465.43237	593.95636	1232.42932	-1360.30896	713.13171	1361.00903	-1620.84851	680.47998	1161.24841	-1682.09717	673.5553	1037.25903	-1689.71338	691.59857	908.07098	-1686.28491	707.39941	791.54633	-1652.88171	677.91046	794.89911	-1700.01172	688.73016	711.54559	-1687.2887	728.0484	1353.67017	-1304.61523	762.80566	1134.39307	-1231.97961	800.80084	1027.79651	-1222.89343	850.36615	900.53558	-1230.58545	898.56335	818.30768	-1276.198	876.05908	803.15503	-1229.52844	915.21741	742.55365	-1246.24658	782.17523	928.83087	-1568.52368	769.21716	923.508	-1331.34265	616.97595	951.72351	-1530.14771	611.97186	960.70056	-1379.39172	785.84869	633.86584	-1618.93604	839.56525	466.01233	-1575.6604	846.12622	276.3606	-1584.53503	895.48511	70.74963	-1557.40088	860.65326	31.83823	-1519.56567	1046.70996	49.41913	-1523.45251	662.98187	637.27472	-1296.76343	635.11157	459.29193	-1331.19495	529.76447	295.98416	-1328.31287	426.979	104.23897	-1374.39185	374.72498	84.75271	-1423.86035	553.71808	36.75553	-1389.59888	758.01813	1672.68555	-1466.92297	NaN	NaN	NaN	NaN	NaN	NaN	NaN	NaN	NaN	NaN	NaN	NaN	NaN	NaN	NaN	NaN	NaN	NaN	NaN	NaN	NaN
321	3.2	845.19867	1598.97913	-1504.4552	819.42603	1600.57373	-1373.62976	713.74866	1577.39783	-1527.59045	692.25897	1577.38782	-1398.64246	655.30481	1407.72412	-1465.50037	621.07629	1091.7666	-1458.55371	774.35754	1328.97339	-1465.90796	818.67896	1164.64819	-1466.30444	602.21606	1232.67358	-1362.4989	722.61688	1361.41736	-1622.29065	690.15833	1161.55249	-1683.4303	683.31519	1037.45105	-1690.88757	700.61267	908.16443	-1687.23035	716.0719	792.02332	-1654.07068	686.30005	795.07373	-1700.98511	696.59729	711.69714	-1687.94836	735.98151	1354.05981	-1305.85864	769.91089	1134.47815	-1233.36719	807.35559	1027.5874	-1224.22375	856.31317	900.0199	-1231.98669	904.45642	817.78339	-1277.42432	881.49561	802.53894	-1230.97375	920.43066	741.80029	-1247.77759	792.17621	929.89044	-1569.38574	778.18048	923.35583	-1332.37378	627.10309	952.55865	-1531.38135	621.45734	960.93463	-1380.73279	794.39032	634.99152	-1618.78528	845.94025	466.17642	-1576.30774	852.08588	276.44516	-1585.64014	898.5658	70.20678	-1557.72925	862.8598	32.15686	-1520.37305	1049.06189	44.45304	-1522.47632	671.29163	637.42004	-1297.80579	643.00739	459.4306	-1331.63367	534.98328	297.75806	-1328.61633	429.06403	107.69009	-1374.37537	376.6423	89.09848	-1423.95532	554.09955	36.69223	-1389.52332	766.3642	1674.23218	-1467.33484	NaN	NaN	NaN	NaN	NaN	NaN	NaN	NaN	NaN	NaN	NaN	NaN	NaN	NaN	NaN	NaN	NaN	NaN	NaN	NaN	NaN
322	3.21	853.92792	1599.75232	-1505.02539	827.26746	1601.1571	-1374.38147	722.60797	1578.02539	-1528.90796	700.35144	1577.89038	-1400.08923	664.30676	1408.35474	-1467	630.15417	1092.37183	-1459.93469	783.41327	1329.66504	-1467.0437	827.88281	1165.46277	-1467.35669	610.73633	1232.87708	-1364.58191	732.10431	1362.05066	-1623.7207	700.09869	1162.12439	-1684.81543	693.34406	1037.93188	-1692.07642	709.97119	908.56842	-1688.24158	724.91589	792.50763	-1655.06409	695.14441	795.52625	-1702.00916	704.88824	712.15155	-1688.7428	744.00928	1354.5752	-1307.14417	777.00958	1134.76355	-1234.79993	813.92255	1027.63037	-1225.63647	862.13208	899.80524	-1233.35913	910.36151	817.3092	-1278.65381	886.73132	802.11981	-1232.33325	925.36584	741.16528	-1249.13855	802.24359	931.27161	-1570.34363	787.59937	923.6001	-1333.53577	636.69769	953.92041	-1532.6582	630.83441	961.27051	-1382.00916	802.453	635.87689	-1618.77246	852.67584	466.48123	-1576.95215	857.34528	276.22916	-1586.56628	901.05182	69.5948	-1557.5321	863.63666	33.11373	-1520.8396	1051.82544	42.05068	-1522.52283	679.90729	637.5481	-1298.77283	651.37378	459.61789	-1331.95288	540.40076	299.57498	-1328.84045	431.53949	111.23528	-1374.19653	378.9415	93.9469	-1424.08167	554.5885	36.67932	-1389.42468	774.8692	1674.88794	-1468.32397	NaN	NaN	NaN	NaN	NaN	NaN	NaN	NaN	NaN	NaN	NaN	NaN	NaN	NaN	NaN	NaN	NaN	NaN	NaN	NaN	NaN
